<svg width="465" height="101" xmlns="http://www.w3.org/2000/svg">
 <title>Supreme Management logo</title>
 <defs>
  <radialGradient cx="14.2592866%" cy="73.5269173%" fx="14.2592866%" fy="73.5269173%" r="221.923749%" id="radialGradient-1">
   <stop stop-color="#FFFFFF" offset="0%"/>
   <stop stop-color="#000000" offset="100%"/>
  </radialGradient>
  <radialGradient cx="84.1134916%" cy="72.3509172%" fx="84.1134916%" fy="72.3509172%" r="130.596454%" id="radialGradient-2">
   <stop stop-color="#FFFFFF" offset="0%"/>
   <stop stop-color="#000000" offset="100%"/>
  </radialGradient>
 </defs>
 <g>
  <g id="Page-1" fill="none" fill-rule="evenodd">
   <g id="Supreme-Management-logo">
    <path d="m8.18319,19.7574c0,-7.95695 7.83781,-19.60897 25.2771,-19.60897c14.2367,0 20.75477,8.44574 20.75477,15.33408c0,3.08745 -1.54283,5.81928 -3.91532,7.71884l-0.35569,-0.11839c2.25377,-13.18206 -4.03762,-21.70135 -17.44378,-21.70135c-16.84617,0 -21.58755,10.18162 -21.58755,17.42556c0,11.87624 11.38936,15.43857 21.11763,18.76413c14.11799,4.75067 19.10039,11.16368 19.10039,18.88117c0,10.5704 -9.96525,22.32735 -28.35425,22.32735c-14.23626,0 -22.65957,-9.97623 -22.65957,-18.40807c0,-3.80045 1.89763,-7.24305 5.69513,-9.38117l0.11827,0.11839c-7.9489,17.33901 4.02731,26.64484 17.43436,26.64484c14.5915,0 24.91916,-8.08205 24.91916,-20.55157c0,-10.92601 -11.50763,-14.52511 -21.35461,-17.96771c-10.79713,-3.80045 -18.74604,-9.02691 -18.74604,-19.47713l0,0z" id="Shape" fill="#5F5D5C"/>
    <path d="m122.06116,18.2139c0.71183,-7.12601 0.98241,-11.58116 1.10112,-13.71883c0,-1.42511 -0.11871,-1.54305 -1.89806,-1.54305l-7.23663,-0.1296l0.08511,-1.36368l6.05038,0.1296c0.59267,0 8.779,0 13.52398,-0.12018l-0.08467,1.36458l-6.18835,0.06412c-1.77982,0 -2.13551,0.11839 -2.37248,1.54395c-0.35615,2.13811 -0.86459,6.59237 -1.57687,13.71793l-3.55828,33.25202c-1.66109,16.03229 -13.86086,27.36861 -31.06406,27.36861c-14.71111,0 -25.38863,-11.99417 -23.8458,-26.72063l3.55917,-33.84529c0.71228,-7.12601 1.0187,-11.58116 1.13697,-13.71883c0,-1.42511 -0.11827,-1.54305 -1.89808,-1.54305l-5.93166,-0.1296l0.04928,-1.36367l5.93166,0.12959c0.59357,0 8.89727,0 13.64359,-0.12018l-0.04929,1.36458l-5.93166,0.11928c-1.77981,0 -2.13551,0.11839 -2.37293,1.54305c-0.35614,2.13812 -0.89999,6.59327 -1.61138,13.71883l-3.32219,31.46996c-1.89806,17.21973 8.58279,27.74798 23.2939,27.74798c11.2711,0 25.26994,-8.313 27.16801,-25.53274l3.39925,-33.68475l0,0l-0.00003,0z" id="Shape" fill="#5F5D5C"/>
    <path d="m162.54976,43.31121c-7.11836,0 -12.33864,0.11928 -14.47369,0.23812c-1.42456,0.11838 -1.54236,0.3556 -1.7798,2.13811l-1.48369,15.27893c-0.83055,7.12601 -1.17012,11.57488 -1.28929,13.713c0,1.42556 0.23744,1.54395 2.01724,1.54395l6.12877,-0.08162l-0.27237,1.56816c-4.74542,-0.11839 -8.36418,-0.11839 -8.95731,-0.11839l-10.67752,0l0.26251,-1.36861l5.80399,0c1.77982,0 2.01724,-0.11884 2.25467,-1.54395c0.35524,-2.13811 0.93269,-6.58699 1.76323,-13.713l4.50801,-42.75247c0.71184,-7.12601 1.10248,-11.58116 1.22118,-13.71883c0,-1.42511 -0.1187,-1.54305 -1.89809,-1.54305l-5.93211,-0.10538l-0.03447,-1.36368l27.28671,0.10538c12.21991,0 21.11763,6.41211 21.11763,18.52556c0,15.08206 -11.44804,23.19776 -25.56558,23.19776l0,0l-0.00002,0.00001zm4.48245,-40.35919l-13.64314,0c-1.7798,0 -2.13594,0.11838 -2.37292,1.54305c-0.35614,2.13811 -0.98331,6.59327 -1.69513,13.71883l-2.36845,21.44484c-0.11827,1.78162 0,2.01884 1.3054,2.13722c2.13596,0.11839 7.33472,0.11839 14.45308,0.11839c15.42383,0 22.43871,-11.58744 22.43871,-21.44395c0,-8.78834 -5.06706,-17.51838 -18.11752,-17.51838l0,0l-0.00002,0z" id="Shape" fill="#5F5D5C"/>
    <path d="m212.02208,43.37265c-2.60991,0 -5.18265,-0.21391 -5.18265,-1.87624c0,-0.95022 0.94926,-1.42601 1.89853,-1.42601c1.3045,0 2.80121,0.29776 3.75002,1.84171c22.30432,0.713 30.18872,-10.0426 30.18872,-21.44215c0,-8.78835 -5.18533,-17.45965 -18.23625,-17.45965l-13.64359,0c-1.77892,0 -2.13506,0.11929 -2.37248,1.54395c-0.35614,2.13812 -0.86459,6.53363 -1.57643,13.65919l-4.508,42.75247c-0.83054,7.12601 -1.01064,11.5287 -1.12935,13.66727c0,1.42511 0.23743,1.54395 2.01724,1.54395l5.90434,-0.03543l-0.26744,1.56816c-4.74498,-0.11839 -8.30461,-0.11839 -8.89729,-0.11839l-10.67708,0l0.29434,-1.41434l5.9312,0c1.78026,0 2.01724,-0.11928 2.25421,-1.54395c0.3557,-2.13857 0.77367,-6.54126 1.60376,-13.66727l4.50801,-42.75247c0.71228,-7.12601 0.98331,-11.52152 1.10202,-13.65919c0,-1.42511 -0.11871,-1.54395 -1.8981,-1.54395l-5.9321,-0.10538l0.08421,-1.42242l27.28673,0.10538c12.21947,0 21.11717,6.41211 21.11717,18.52556c0,14.72556 -10.48624,23.14081 -32.78922,23.25875c6.85808,13.02466 21.88188,56.83677 57.56007,54.55112c1.54016,-0.0991 3.20395,-0.23722 5.34033,-0.83139l0.11871,0.23812c-0.4744,1.89955 -4.86411,2.97399 -8.06625,2.96906c-28.32915,-0.03991 -40.08408,-21.24799 -55.78342,-56.92645" id="Shape" fill="#5F5D5C"/>
    <path d="m282.56454,38.98789c-7.117,0 -12.33817,0.12018 -14.59103,0.23812c-1.42368,0.11928 -1.54239,0.35561 -1.66156,2.13811l-1.99484,19.60225c-0.82965,7.12601 -1.18579,11.58116 -1.30539,13.71973c0,1.42558 0.23785,1.5435 2.01813,1.5435l34.28186,0c3.79572,0 3.79572,-1.5435 4.27057,-3.32467l1.42322,-6.59506l1.42816,0c-0.95016,4.74977 -1.89673,10.80627 -1.89673,11.40044c-2.1373,-0.11839 -15.06726,-0.11839 -22.18607,-0.11839l-31.08377,0l0.11961,-1.36233l5.93166,0c1.77982,0 2.0177,-0.11839 2.25424,-1.5435c0.35522,-2.13857 0.94925,-6.59372 1.7789,-13.71973l4.508,-42.75247c0.71274,-7.12601 1.07513,-11.55381 1.19385,-13.69193c0,-1.42511 -0.11871,-1.54394 -1.89761,-1.54394l-5.93213,-0.15606l-0.00717,-1.39013l27.52325,0.15605c7.11926,0 20.04965,0 22.18472,-0.12018c0,0.59462 -0.47485,6.65112 -0.47485,11.40135l-1.42682,0l0.12274,-7.22018c-0.11826,-1.78162 0.23969,-2.6713 -3.55649,-2.6713l-30.72314,0c-1.7789,0 -2.1355,0.11928 -2.37292,1.54394c-0.35614,2.13812 -0.95508,6.56592 -1.6687,13.69193l-1.77893,16.98162c-0.23654,1.78161 -0.11826,2.01883 1.30542,2.13722c2.13419,0.11928 7.23706,0.23811 14.35361,0.23811c2.61084,0 5.13919,-0.11928 7.27518,-0.23811c1.42322,-0.11839 1.54193,-0.35561 1.78024,-2.13722l0.71048,-6.65023l1.38788,0c-0.59402,4.75068 -1.42325,12.46951 -1.42325,13.06323l-0.59494,5.93722l-1.38559,0l0.56982,-6.18161c0.11871,-1.78251 0,-2.01884 -1.42322,-2.13812c-2.01633,-0.11749 -4.42599,-0.23767 -7.03638,-0.23767l0,0l0,0.00001z" id="Shape" fill="#5F5D5C"/>
    <path d="m438.52411,38.98789c-7.11655,0 -12.33771,0.12018 -14.59061,0.23812c-1.4241,0.11928 -1.54239,0.35561 -1.66153,2.13811l-1.9953,19.60225c-0.82919,7.12601 -1.18579,11.58116 -1.30539,13.71973c0,1.42558 0.23785,1.5435 2.01813,1.5435l34.28232,0c3.79572,0 3.79572,-1.5435 4.27011,-3.32467l1.42368,-6.59506l1.4277,0c-0.94925,4.74977 -1.89673,10.80627 -1.89673,11.40044c-2.1373,-0.11839 -15.06726,-0.11839 -22.18607,-0.11839l-31.08377,0l0.11963,-1.36233l5.9321,0c1.77982,0 2.01724,-0.11839 2.25378,-1.5435c0.35522,-2.13857 0.94971,-6.59372 1.77936,-13.71973l4.50754,-42.75247c0.71317,-7.12601 1.07513,-11.55381 1.19385,-13.69193c0,-1.42511 -0.11871,-1.54394 -1.89761,-1.54394l-6.02036,-0.08879l-0.00717,-1.39014l27.6124,0.08879c7.1188,0 20.04965,0 22.18427,-0.12018c0,0.59462 -0.47443,6.65112 -0.47443,11.40135l-1.42725,0l0.1232,-7.22018c-0.11871,-1.78162 0.23923,-2.6713 -3.55695,-2.6713l-30.72314,0c-1.77936,0 -2.1355,0.11928 -2.37292,1.54394c-0.35571,2.13812 -0.95465,6.56592 -1.66873,13.69193l-1.77847,16.98162c-0.23697,1.78161 -0.11826,2.01883 1.30453,2.13722c2.13461,0.11928 7.23749,0.23811 14.35406,0.23811c2.61081,0 5.13965,-0.11928 7.2756,-0.23811c1.42276,-0.11839 1.54193,-0.35561 1.77979,-2.13722l0.7114,-6.65023l1.38693,0c-0.59399,4.75068 -1.42322,12.46951 -1.42322,13.06323l-0.59491,5.93722l-1.38559,0l0.56982,-6.18161c0.11871,-1.78251 0,-2.01884 -1.42322,-2.13812c-2.01636,-0.11749 -4.42557,-0.23767 -7.03683,-0.23767l0,0l0,0.00001z" id="Shape" fill="url(#radialGradient-1)"/>
    <path d="m392.6907,60.96637c-0.83011,7.12601 -1.14279,11.45246 -1.26059,13.59058c0,1.42556 0.23651,1.5435 2.01633,1.5435l5.93167,0.11928l-0.16129,1.49059c-4.74496,-0.11839 -13.05136,-0.11839 -13.64313,-0.11839l-5.9321,0l0.16122,-1.49148l5.93213,0c1.77939,0 2.01636,-0.11839 2.25421,-1.5435c0.35614,-2.13812 0.90536,-6.46458 1.73724,-13.59058l6.05038,-57.24126c-9.61136,14.25067 -23.96542,34.43857 -37.01633,54.86592l-0.5918,0c-3.32129,-8.31345 -17.44061,-32.30179 -27.76202,-54.03408l-6.05081,56.40897c-0.83011,7.12601 -1.10605,11.45247 -1.22433,13.59058c0,1.42556 0.237,1.5435 2.01682,1.5435l7.23706,0.11928l-0.198,1.49059c-4.74588,-0.11839 -12.93311,-0.11839 -13.52533,-0.11839l-6.05035,0l0.19846,-1.49148l6.26453,0.04305c1.77982,0 2.01767,-0.11928 2.2551,-1.54394c0.35571,-2.13768 0.86862,-6.46503 1.69873,-13.59104l4.50845,-42.75246c0.71228,-7.12601 1.05365,-11.52063 1.17191,-13.65785c0,-1.42601 -0.19891,-1.62467 -1.97961,-1.62467l-6.2663,-0.04305l0.01523,-1.42331l6.04993,0c0.59402,0 1.14996,0.08071 5.89404,-0.03947l27.52414,53.08521l35.94791,-52.96547c0.59222,0 6.52432,0 11.26929,-0.12018l0,1.53811l-5.93256,0.11839c-1.7789,0 -2.1337,0.11928 -2.37067,1.54394c-0.35706,2.13812 -0.94974,6.41974 -1.66202,13.54575l-4.50754,42.75336l0,0z" id="Shape" fill="url(#radialGradient-2)"/>
   </g>
  </g>
 </g>
</svg>
